<?xml version="1.0" standalone="no"?>
<!DOCTYPE svg PUBLIC "-//W3C//DTD SVG 20010904//EN"
 "http://www.w3.org/TR/2001/REC-SVG-20010904/DTD/svg10.dtd">
<svg version="1.0" xmlns="http://www.w3.org/2000/svg"
 width="329.000000pt" height="329.000000pt" viewBox="0 0 329.000000 329.000000"
 preserveAspectRatio="xMidYMid meet">
<metadata>
Created by potrace 1.14, written by Peter Selinger 2001-2017
</metadata>
<g transform="translate(0.000000,329.000000) scale(0.100000,-0.100000)"
fill="#000000" stroke="none">
<path d="M2212 3192 c-87 -81 -102 -94 -102 -87 0 3 -8 -3 -18 -12 -10 -10
-29 -25 -41 -33 -13 -8 -49 -34 -80 -56 -65 -47 -97 -50 -190 -19 -35 11 -66
15 -92 11 -29 -5 -46 -1 -71 14 -58 35 -144 22 -201 -30 -10 -10 -31 -18 -46
-18 -34 0 -81 -18 -108 -44 -20 -19 -26 -19 -55 -8 -48 18 -177 85 -275 141
-86 50 -105 54 -98 20 2 -10 -1 -24 -5 -31 -5 -8 -5 -21 0 -29 7 -15 13 -53
25 -167 2 -22 5 -45 6 -50 4 -22 -2 -33 -21 -39 -11 -4 -18 -10 -15 -15 3 -5
0 -10 -6 -12 -11 -4 27 -79 43 -86 4 -2 8 -10 8 -18 0 -8 4 -14 9 -14 5 0 11
-9 14 -19 3 -13 0 -18 -12 -16 -35 5 -88 -38 -141 -115 -8 -12 -23 -31 -32
-42 -10 -11 -20 -29 -23 -39 -4 -11 -11 -19 -16 -19 -6 0 -7 -5 -4 -10 3 -6
-1 -13 -9 -16 -9 -3 -14 -9 -12 -13 3 -4 -9 -26 -25 -50 -16 -24 -26 -47 -23
-52 3 -5 1 -9 -5 -9 -11 0 -57 -89 -53 -102 1 -5 -3 -8 -10 -8 -6 0 -8 -3 -5
-6 4 -4 -3 -20 -14 -35 -11 -16 -18 -29 -14 -29 3 0 -2 -15 -12 -32 -9 -18
-18 -39 -19 -46 -1 -7 -12 -28 -23 -48 -12 -20 -19 -40 -16 -45 4 -5 1 -9 -5
-9 -6 0 -8 -4 -5 -10 3 -5 1 -10 -5 -10 -6 0 -9 -4 -6 -8 8 -13 -127 -282
-174 -348 -37 -51 -120 -128 -139 -129 -3 -1 -15 -6 -26 -12 -11 -6 -27 -9
-36 -8 -9 2 -16 -3 -16 -10 0 -28 145 6 169 40 4 5 8 6 8 2 0 -5 7 -2 15 5 33
29 45 38 54 38 5 0 12 7 15 16 14 35 15 6 2 -43 -8 -29 -11 -54 -8 -57 3 -3 1
-6 -4 -6 -5 0 -10 -8 -10 -17 0 -10 -4 -40 -8 -68 -4 -27 -9 -63 -12 -80 -7
-48 -5 -275 2 -287 4 -6 8 -30 10 -54 1 -24 6 -49 11 -56 4 -7 9 -22 10 -32 9
-53 75 -165 128 -216 83 -81 85 -82 85 -75 0 4 18 -7 39 -24 48 -39 148 -86
221 -105 64 -16 157 -14 191 5 33 19 79 69 91 99 16 38 18 122 3 150 -14 26
-69 83 -79 81 -3 -1 -8 0 -11 0 -22 5 -95 2 -95 -3 0 -5 -5 -8 -11 -8 -14 0
-58 -50 -60 -67 -5 -52 0 -73 17 -66 10 4 12 8 5 13 -23 13 25 42 61 37 46 -8
78 -18 79 -26 0 -3 2 -16 5 -28 9 -51 -111 -70 -189 -30 -20 10 -37 24 -38 31
0 6 -2 20 -5 31 -20 97 -24 475 -4 475 5 0 6 15 13 117 1 18 5 33 10 33 4 0 6
3 5 8 -2 9 16 115 22 127 3 6 3 5 15 60 4 22 9 45 11 50 2 6 5 19 7 30 3 11
13 47 23 80 10 33 19 65 20 70 1 6 9 30 18 54 9 24 13 47 10 52 -3 5 -1 9 3 9
5 0 15 20 22 45 7 25 15 45 16 43 2 -2 5 -21 9 -43 9 -66 70 -215 87 -215 5 0
6 6 4 13 -2 6 -7 23 -9 37 -3 14 -8 36 -11 50 -4 17 1 12 17 -15 12 -22 21
-43 20 -47 -5 -20 103 -87 227 -141 l53 -23 -36 -37 c-37 -39 -43 -52 -27 -62
18 -11 1 -49 -36 -83 -78 -69 -116 -96 -137 -99 -47 -4 -72 -10 -84 -17 -15
-9 -86 -11 -100 -3 -5 4 -15 -5 -23 -19 -13 -25 -11 -28 22 -58 19 -17 48 -40
64 -51 24 -18 27 -23 17 -42 -10 -18 -9 -22 6 -25 16 -4 103 47 110 65 2 4 11
7 21 7 9 0 31 12 48 27 17 16 54 42 82 58 28 17 51 33 51 36 0 10 54 32 73 30
9 -1 17 2 17 7 0 14 50 45 77 48 14 1 23 -3 23 -11 0 -9 -11 -13 -29 -13 -32
1 -54 -9 -46 -22 3 -5 1 -12 -5 -15 -7 -4 -7 -12 -2 -18 4 -7 8 -21 7 -32 0
-11 3 -27 7 -36 5 -11 -2 -21 -25 -33 -91 -51 -184 -121 -195 -146 -15 -32 -8
-57 19 -65 10 -4 19 -13 19 -20 0 -20 51 -65 64 -58 6 4 -1 -6 -17 -22 -15
-15 -27 -32 -27 -37 0 -5 -5 -6 -10 -3 -5 3 -10 2 -10 -4 0 -5 -6 -16 -13 -23
-7 -7 -26 -31 -44 -53 -28 -36 -30 -46 -26 -92 5 -64 27 -139 39 -136 5 0 23
3 39 6 101 17 134 29 152 55 9 15 18 30 18 33 0 10 40 84 48 90 5 3 9 10 9 15
0 5 6 20 14 34 l13 25 -1 -25 c-1 -34 17 -243 26 -296 3 -16 8 -49 11 -74 4
-25 9 -52 10 -60 2 -8 4 -20 4 -26 1 -15 40 -54 54 -54 35 1 41 18 71 210 3
19 7 44 10 55 2 11 7 42 10 68 4 27 9 58 11 69 3 11 7 46 11 77 8 68 18 90 41
87 10 -2 24 3 31 11 11 10 16 10 26 0 12 -12 15 -53 6 -72 -3 -5 -6 -31 -5
-57 0 -27 -2 -48 -5 -48 -3 0 -6 -8 -7 -17 -1 -10 -4 -47 -6 -83 -11 -135 -21
-213 -32 -230 -3 -6 0 -10 7 -10 10 0 10 -2 1 -8 -7 -4 -10 -16 -8 -27 2 -11
4 -24 4 -28 3 -31 111 27 111 60 0 7 5 13 11 13 5 0 8 4 4 9 -3 5 2 16 11 25
8 9 16 25 17 36 1 11 4 20 8 20 4 0 10 10 14 23 4 12 9 24 10 27 1 3 6 15 10
28 4 12 12 22 18 22 6 0 8 3 4 6 -3 3 5 30 18 60 13 30 22 54 19 54 -2 0 2 13
10 29 9 16 12 31 9 35 -4 3 -1 6 6 6 8 0 11 8 8 20 -3 10 0 21 6 23 5 1 11 12
12 23 1 10 7 32 14 47 6 15 13 42 17 60 7 41 24 60 24 26 0 -13 10 -51 21 -84
11 -33 24 -78 29 -101 5 -22 12 -49 16 -59 5 -11 4 -16 -3 -12 -19 12 -52 -35
-46 -65 4 -22 12 -29 41 -34 20 -4 49 -2 67 5 23 8 41 8 59 1 40 -15 80 -20
92 -12 6 4 25 43 41 86 l31 79 11 -35 c14 -43 64 -95 110 -114 97 -41 264 -3
373 84 21 16 63 42 95 58 62 30 215 174 186 174 -4 0 -3 4 2 8 19 14 52 96 57
145 1 9 5 17 8 17 9 0 9 343 1 355 -4 6 -8 35 -10 65 -1 30 -6 57 -10 60 -4 3
-8 14 -8 25 -2 36 -31 154 -53 210 -4 11 -13 38 -19 60 -7 22 -16 49 -21 60
-4 11 -23 58 -41 105 -38 96 -178 379 -199 400 -3 3 -12 19 -20 35 -25 51 -74
130 -82 133 -4 2 -8 10 -8 18 0 8 -5 14 -11 14 -5 0 -7 5 -4 10 3 6 3 10 -2
10 -4 0 -19 17 -33 38 -14 20 -27 39 -30 42 -3 3 -23 28 -44 55 -60 76 -164
178 -175 171 -5 -4 -12 -3 -15 2 -3 5 -43 7 -90 6 -48 -1 -86 2 -86 7 0 4 12
21 26 36 34 37 84 109 84 122 0 6 -10 15 -21 22 -31 16 -79 29 -79 21 0 -4 -8
-12 -19 -19 -16 -10 -18 -8 -15 14 10 95 4 326 -9 339 -2 2 -35 -27 -75 -64z
m181 -914 c26 -63 28 -85 9 -90 -16 -5 -18 0 -17 31 1 20 -2 48 -6 64 -10 37
-2 34 14 -5z m56 -177 c-15 -5 -22 6 -14 19 6 9 10 9 16 -1 5 -8 4 -15 -2 -18z
m22 -41 c6 0 8 -4 5 -9 -3 -5 5 -40 18 -79 13 -39 21 -73 18 -77 -4 -3 -1 -9
5 -13 7 -4 14 -19 17 -32 14 -71 19 -90 25 -90 3 0 7 -12 8 -28 3 -28 10 -65
13 -69 2 -2 4 -7 5 -13 1 -5 4 -12 5 -15 1 -3 4 -14 5 -25 1 -11 4 -21 5 -22
1 -2 4 -14 6 -28 5 -30 12 -65 14 -65 1 0 4 -15 14 -80 2 -11 4 -20 5 -20 1 0
4 -13 6 -30 2 -16 7 -46 11 -65 4 -19 8 -48 10 -65 2 -16 5 -48 8 -70 12 -84
17 -143 20 -218 2 -43 6 -80 9 -84 4 -3 2 -14 -4 -24 -5 -11 -6 -19 -2 -19 4
0 8 -22 8 -50 0 -27 -2 -50 -5 -50 -3 0 -5 -24 -6 -53 -1 -80 -8 -131 -20
-144 -15 -16 -62 -24 -70 -12 -3 5 -9 7 -13 5 -12 -8 -51 33 -51 53 0 20 25
35 41 25 5 -3 9 -1 9 5 0 12 29 3 46 -14 8 -8 9 -17 2 -29 -9 -16 -8 -16 11
-7 29 16 27 59 -4 95 -19 22 -34 29 -74 31 -45 3 -53 1 -87 -31 -37 -33 -44
-47 -46 -92 0 -13 -3 -20 -7 -17 -7 7 -56 95 -97 173 -15 28 -30 52 -33 52 -4
0 -8 11 -9 25 -1 15 3 25 11 25 21 0 77 74 67 89 -4 7 -6 21 -3 30 3 12 -21
33 -87 75 l-90 59 1 41 c1 23 1 61 0 85 -1 38 -3 43 -21 38 -11 -3 -20 -1 -20
4 0 6 -7 6 -17 1 -10 -5 -24 -7 -30 -5 -7 3 -13 1 -13 -4 0 -5 -9 -9 -20 -10
-18 -2 -25 8 -21 30 0 4 -4 7 -10 7 -6 0 -9 7 -5 15 3 8 1 15 -3 15 -5 0 -8 8
-6 18 1 9 0 22 -4 27 -3 6 -7 21 -9 35 -2 14 -7 29 -12 34 -9 9 112 106 132
106 16 0 78 52 78 65 0 7 9 23 19 36 l20 24 -12 -35 c-7 -19 -16 -40 -20 -47
-4 -6 -4 -14 1 -17 23 -14 109 189 126 299 4 22 9 54 12 70 4 17 7 45 8 63 2
39 89 147 94 119 2 -10 8 -17 13 -17z m-1226 -440 c7 0 15 -7 19 -15 3 -8 12
-15 21 -15 8 0 15 -5 15 -11 0 -5 5 -7 10 -4 6 3 10 2 10 -3 0 -5 21 -15 48
-22 58 -16 78 -32 34 -26 -18 2 -32 -1 -32 -6 0 -5 -4 -7 -10 -3 -5 3 -8 -10
-5 -35 4 -36 2 -40 -23 -47 -15 -3 -32 -13 -39 -22 -7 -9 -13 -13 -14 -8 -3
14 -6 22 -17 50 -7 16 -10 33 -6 38 3 5 1 9 -5 9 -6 0 -8 7 -5 15 4 8 2 21 -4
28 -5 6 -12 32 -15 57 -3 25 -4 39 -1 33 3 -7 12 -13 19 -13z m1931 -228 c9
-31 17 -61 18 -67 1 -5 4 -14 7 -20 4 -5 9 -26 12 -45 4 -19 9 -51 13 -70 3
-19 7 -44 8 -55 1 -11 4 -24 7 -30 6 -9 5 -280 0 -280 -2 0 -5 -13 -7 -29 -3
-16 -12 -42 -20 -57 -7 -15 -14 -35 -14 -44 0 -8 -4 -15 -9 -15 -5 0 -12 -8
-15 -17 -4 -10 -24 -30 -45 -45 -40 -29 -95 -54 -88 -40 19 36 58 131 59 142
0 3 5 14 11 25 6 11 12 29 13 41 1 11 8 40 14 65 7 24 14 55 16 69 2 14 6 45
10 70 15 103 2 387 -21 473 -5 19 -5 20 5 4 6 -9 18 -43 26 -75z m-2882 -494
c-1 -10 1 -18 5 -18 4 0 8 -6 9 -12 0 -7 3 -24 6 -38 3 -14 8 -44 12 -68 4
-23 11 -45 15 -48 5 -3 9 -13 9 -23 0 -10 15 -48 33 -84 18 -35 28 -63 22 -60
-17 7 -85 100 -85 117 0 9 -4 16 -8 16 -4 0 -8 8 -8 18 -1 9 -4 31 -7 47 -10
53 -16 108 -18 170 -2 82 2 99 11 45 4 -25 6 -53 4 -62z"/>
</g>
</svg>
